G04 #@! TF.FileFunction,Copper,L2,Bot,Signal*
%FSLAX46Y46*%
G04 Gerber Fmt 4.6, Leading zero omitted, Abs format (unit mm)*
G04 Created by KiCad (PCBNEW (2015-07-20 BZR 5967)-product) date 2015/07/23 18:24:06*
%MOMM*%
G01*
G04 APERTURE LIST*
%ADD10C,0.100000*%
%ADD11R,1.300000X1.300000*%
%ADD12C,1.300000*%
%ADD13R,2.000000X2.000000*%
%ADD14C,2.000000*%
%ADD15O,2.499360X4.000500*%
%ADD16C,2.200000*%
%ADD17C,4.064000*%
%ADD18O,1.501140X1.998980*%
%ADD19C,1.998980*%
%ADD20O,2.540000X2.032000*%
%ADD21O,2.199640X1.501140*%
%ADD22C,1.600000*%
%ADD23C,0.380000*%
G04 APERTURE END LIST*
D10*
D11*
X173700000Y-77600000D03*
D12*
X173700000Y-82600000D03*
D11*
X189020000Y-83850000D03*
D12*
X189020000Y-81850000D03*
D13*
X185435000Y-50400000D03*
D14*
X185435000Y-52940000D03*
D13*
X192420000Y-50400000D03*
D14*
X192420000Y-52940000D03*
D15*
X156000000Y-72999260D03*
X156000000Y-95000740D03*
D16*
X110697216Y-61719634D03*
X110697216Y-65719634D03*
X105697216Y-65719634D03*
X105697216Y-61719634D03*
D17*
X131000000Y-95000000D03*
X143500000Y-94800000D03*
D18*
X147060000Y-46000000D03*
X149600000Y-46000000D03*
X152140000Y-46000000D03*
D19*
X192420000Y-67660000D03*
X192420000Y-60160000D03*
X185700000Y-64750000D03*
X185700000Y-57250000D03*
D20*
X180000000Y-81460000D03*
X180000000Y-84000000D03*
X180000000Y-78920000D03*
D21*
X205365000Y-95205000D03*
X205365000Y-92665000D03*
X205365000Y-90125000D03*
X205365000Y-87585000D03*
X205365000Y-85045000D03*
X205365000Y-82505000D03*
X205365000Y-79965000D03*
X205365000Y-77425000D03*
X205365000Y-74885000D03*
X205365000Y-72345000D03*
X205365000Y-69805000D03*
X205365000Y-67265000D03*
X205365000Y-64725000D03*
X205365000Y-62185000D03*
X197745000Y-62185000D03*
X197745000Y-64725000D03*
X197745000Y-67265000D03*
X197745000Y-69805000D03*
X197745000Y-72345000D03*
X197745000Y-74885000D03*
X197745000Y-77425000D03*
X197745000Y-79965000D03*
X197745000Y-82505000D03*
X197745000Y-85045000D03*
X197745000Y-87585000D03*
X197745000Y-90125000D03*
X197745000Y-92665000D03*
X197745000Y-95205000D03*
D20*
X166000000Y-80000000D03*
X166000000Y-77460000D03*
X166000000Y-82540000D03*
D17*
X180000000Y-65000000D03*
D22*
X127000000Y-56500000D03*
X143700000Y-75200000D03*
X201420000Y-78520000D03*
X191740000Y-89670000D03*
X200780000Y-83070000D03*
X136997582Y-74000000D03*
X131997216Y-59819634D03*
D23*
X143700000Y-75200000D02*
X131000000Y-87900000D01*
X131000000Y-87900000D02*
X131000000Y-95000000D01*
X201420000Y-78520000D02*
X199190000Y-78520000D01*
X199190000Y-78520000D02*
X197745000Y-79965000D01*
X127011216Y-56505634D02*
X115911216Y-56505634D01*
X115911216Y-56505634D02*
X110697216Y-61719634D01*
X198094250Y-79965000D02*
X197745000Y-79965000D01*
X191740000Y-91416832D02*
X191740000Y-89670000D01*
X200780000Y-83070000D02*
X200780000Y-94386832D01*
X198641252Y-96525580D02*
X196848748Y-96525580D01*
X200780000Y-94386832D02*
X198641252Y-96525580D01*
X196848748Y-96525580D02*
X191740000Y-91416832D01*
X133697216Y-62551004D02*
X133697216Y-70699634D01*
X133697216Y-70699634D02*
X136997582Y-74000000D01*
X131997216Y-59719634D02*
X131997216Y-60851004D01*
X131997216Y-60851004D02*
X133697216Y-62551004D01*
G36*
X208810000Y-44184186D02*
X208810000Y-102810000D01*
X99190000Y-102810000D01*
X99190000Y-96889530D01*
X129200980Y-96889530D01*
X129416119Y-97288909D01*
X130412612Y-97720801D01*
X131498530Y-97738476D01*
X132508551Y-97339243D01*
X132583881Y-97288909D01*
X132799020Y-96889530D01*
X131000000Y-95090510D01*
X129200980Y-96889530D01*
X99190000Y-96889530D01*
X99190000Y-95498530D01*
X128261524Y-95498530D01*
X128660757Y-96508551D01*
X128711091Y-96583881D01*
X129110470Y-96799020D01*
X130909490Y-95000000D01*
X131090510Y-95000000D01*
X132889530Y-96799020D01*
X133288909Y-96583881D01*
X133720801Y-95587388D01*
X133724521Y-95358868D01*
X140677511Y-95358868D01*
X141106230Y-96396446D01*
X141899378Y-97190980D01*
X142936207Y-97621509D01*
X144058868Y-97622489D01*
X145096446Y-97193770D01*
X145890980Y-96400622D01*
X146321509Y-95363793D01*
X146322489Y-94241132D01*
X146303637Y-94195506D01*
X153960320Y-94195506D01*
X153960320Y-95805974D01*
X154115581Y-96586526D01*
X154557728Y-97248246D01*
X155219448Y-97690393D01*
X156000000Y-97845654D01*
X156780552Y-97690393D01*
X157442272Y-97248246D01*
X157884419Y-96586526D01*
X157966959Y-96171566D01*
X170860785Y-96171566D01*
X171049102Y-96627328D01*
X171397497Y-96976332D01*
X171852931Y-97165445D01*
X172346066Y-97165875D01*
X172801828Y-96977558D01*
X173150832Y-96629163D01*
X173339945Y-96173729D01*
X173340375Y-95680594D01*
X173152058Y-95224832D01*
X172803663Y-94875828D01*
X172348229Y-94686715D01*
X171855094Y-94686285D01*
X171399332Y-94874602D01*
X171050328Y-95222997D01*
X170861215Y-95678431D01*
X170860785Y-96171566D01*
X157966959Y-96171566D01*
X158039680Y-95805974D01*
X158039680Y-94195506D01*
X157884419Y-93414954D01*
X157442272Y-92753234D01*
X156780552Y-92311087D01*
X156000000Y-92155826D01*
X155219448Y-92311087D01*
X154557728Y-92753234D01*
X154115581Y-93414954D01*
X153960320Y-94195506D01*
X146303637Y-94195506D01*
X145893770Y-93203554D01*
X145100622Y-92409020D01*
X144063793Y-91978491D01*
X142941132Y-91977511D01*
X141903554Y-92406230D01*
X141109020Y-93199378D01*
X140678491Y-94236207D01*
X140677511Y-95358868D01*
X133724521Y-95358868D01*
X133738476Y-94501470D01*
X133339243Y-93491449D01*
X133288909Y-93416119D01*
X132889530Y-93200980D01*
X131090510Y-95000000D01*
X130909490Y-95000000D01*
X130909490Y-95000000D01*
X129110470Y-93200980D01*
X128711091Y-93416119D01*
X128279199Y-94412612D01*
X128261524Y-95498530D01*
X99190000Y-95498530D01*
X99190000Y-93110470D01*
X129200980Y-93110470D01*
X131000000Y-94909490D01*
X132799020Y-93110470D01*
X132583881Y-92711091D01*
X131587388Y-92279199D01*
X130501470Y-92261524D01*
X129491449Y-92660757D01*
X129416119Y-92711091D01*
X129200980Y-93110470D01*
X99190000Y-93110470D01*
X99190000Y-90319406D01*
X170860785Y-90319406D01*
X171049102Y-90775168D01*
X171397497Y-91124172D01*
X171852931Y-91313285D01*
X172346066Y-91313715D01*
X172801828Y-91125398D01*
X173150832Y-90777003D01*
X173339945Y-90321569D01*
X173340239Y-89984883D01*
X190149725Y-89984883D01*
X190391278Y-90569486D01*
X190760000Y-90938852D01*
X190760000Y-91416827D01*
X190759999Y-91416832D01*
X190834598Y-91791862D01*
X191047035Y-92109797D01*
X196155781Y-97218542D01*
X196155783Y-97218545D01*
X196473718Y-97430982D01*
X196535940Y-97443359D01*
X196848748Y-97505581D01*
X196848753Y-97505580D01*
X198641247Y-97505580D01*
X198641252Y-97505581D01*
X199016282Y-97430982D01*
X199334217Y-97218545D01*
X201472962Y-95079799D01*
X201472965Y-95079797D01*
X201685402Y-94761862D01*
X201760000Y-94386832D01*
X201760000Y-84338348D01*
X202127150Y-83971839D01*
X202369723Y-83387658D01*
X202370275Y-82755117D01*
X202128722Y-82170514D01*
X201681839Y-81722850D01*
X201097658Y-81480277D01*
X200465117Y-81479725D01*
X199880514Y-81721278D01*
X199576349Y-82024913D01*
X199554575Y-81915449D01*
X199220621Y-81415653D01*
X198854539Y-81171044D01*
X199163798Y-80944038D01*
X199457045Y-80460215D01*
X199513577Y-80254597D01*
X199366712Y-80029000D01*
X197809000Y-80029000D01*
X197809000Y-80049000D01*
X197681000Y-80049000D01*
X197681000Y-80029000D01*
X196123288Y-80029000D01*
X195976423Y-80254597D01*
X196032955Y-80460215D01*
X196326202Y-80944038D01*
X196635461Y-81171044D01*
X196269379Y-81415653D01*
X195935425Y-81915449D01*
X195818156Y-82505000D01*
X195935425Y-83094551D01*
X196269379Y-83594347D01*
X196539745Y-83775000D01*
X196269379Y-83955653D01*
X195935425Y-84455449D01*
X195818156Y-85045000D01*
X195935425Y-85634551D01*
X196269379Y-86134347D01*
X196539745Y-86315000D01*
X196269379Y-86495653D01*
X195935425Y-86995449D01*
X195818156Y-87585000D01*
X195935425Y-88174551D01*
X196269379Y-88674347D01*
X196539745Y-88855000D01*
X196269379Y-89035653D01*
X195935425Y-89535449D01*
X195818156Y-90125000D01*
X195935425Y-90714551D01*
X196269379Y-91214347D01*
X196539745Y-91395000D01*
X196269379Y-91575653D01*
X195935425Y-92075449D01*
X195818156Y-92665000D01*
X195935425Y-93254551D01*
X196269379Y-93754347D01*
X196539745Y-93935000D01*
X196269379Y-94115653D01*
X196091285Y-94382188D01*
X192720000Y-91010902D01*
X192720000Y-90938348D01*
X193087150Y-90571839D01*
X193329723Y-89987658D01*
X193330275Y-89355117D01*
X193088722Y-88770514D01*
X192641839Y-88322850D01*
X192057658Y-88080277D01*
X191425117Y-88079725D01*
X190840514Y-88321278D01*
X190392850Y-88768161D01*
X190150277Y-89352342D01*
X190149725Y-89984883D01*
X173340239Y-89984883D01*
X173340375Y-89828434D01*
X173152058Y-89372672D01*
X172803663Y-89023668D01*
X172348229Y-88834555D01*
X171855094Y-88834125D01*
X171399332Y-89022442D01*
X171050328Y-89370837D01*
X170861215Y-89826271D01*
X170860785Y-90319406D01*
X99190000Y-90319406D01*
X99190000Y-77460000D01*
X163899642Y-77460000D01*
X164037116Y-78151126D01*
X164423906Y-78730000D01*
X164037116Y-79308874D01*
X163899642Y-80000000D01*
X164037116Y-80691126D01*
X164423906Y-81270000D01*
X164037116Y-81848874D01*
X163899642Y-82540000D01*
X164037116Y-83231126D01*
X164428607Y-83817035D01*
X165014516Y-84208526D01*
X165705642Y-84346000D01*
X166294358Y-84346000D01*
X166985484Y-84208526D01*
X167297566Y-84000000D01*
X177899642Y-84000000D01*
X178037116Y-84691126D01*
X178428607Y-85277035D01*
X179014516Y-85668526D01*
X179705642Y-85806000D01*
X180294358Y-85806000D01*
X180985484Y-85668526D01*
X181571393Y-85277035D01*
X181962884Y-84691126D01*
X182100358Y-84000000D01*
X181962884Y-83308874D01*
X181890137Y-83200000D01*
X187564523Y-83200000D01*
X187564523Y-84500000D01*
X187622968Y-84801224D01*
X187796879Y-85065973D01*
X188059424Y-85243193D01*
X188370000Y-85305477D01*
X189670000Y-85305477D01*
X189971224Y-85247032D01*
X190235973Y-85073121D01*
X190413193Y-84810576D01*
X190475477Y-84500000D01*
X190475477Y-83200000D01*
X190417032Y-82898776D01*
X190243121Y-82634027D01*
X190175230Y-82588200D01*
X190369925Y-82108269D01*
X190366004Y-81572016D01*
X190168332Y-81094797D01*
X189912511Y-81047999D01*
X189110510Y-81850000D01*
X189124652Y-81864142D01*
X189034142Y-81954652D01*
X189020000Y-81940510D01*
X189005858Y-81954652D01*
X188915348Y-81864142D01*
X188929490Y-81850000D01*
X188127489Y-81047999D01*
X187871668Y-81094797D01*
X187670075Y-81591731D01*
X187673996Y-82127984D01*
X187864258Y-82587314D01*
X187804027Y-82626879D01*
X187626807Y-82889424D01*
X187564523Y-83200000D01*
X181890137Y-83200000D01*
X181571393Y-82722965D01*
X181470968Y-82655863D01*
X181511236Y-82626726D01*
X181862021Y-82056791D01*
X181935706Y-81791154D01*
X181792169Y-81524000D01*
X180064000Y-81524000D01*
X180064000Y-81544000D01*
X179936000Y-81544000D01*
X179936000Y-81524000D01*
X178207831Y-81524000D01*
X178064294Y-81791154D01*
X178137979Y-82056791D01*
X178488764Y-82626726D01*
X178529032Y-82655863D01*
X178428607Y-82722965D01*
X178037116Y-83308874D01*
X177899642Y-84000000D01*
X167297566Y-84000000D01*
X167571393Y-83817035D01*
X167788233Y-83492511D01*
X172897999Y-83492511D01*
X172944797Y-83748332D01*
X173441731Y-83949925D01*
X173977984Y-83946004D01*
X174455203Y-83748332D01*
X174502001Y-83492511D01*
X173700000Y-82690510D01*
X172897999Y-83492511D01*
X167788233Y-83492511D01*
X167962884Y-83231126D01*
X168100358Y-82540000D01*
X168060920Y-82341731D01*
X172350075Y-82341731D01*
X172353996Y-82877984D01*
X172551668Y-83355203D01*
X172807489Y-83402001D01*
X173609490Y-82600000D01*
X173790510Y-82600000D01*
X174592511Y-83402001D01*
X174848332Y-83355203D01*
X175049925Y-82858269D01*
X175046004Y-82322016D01*
X174848332Y-81844797D01*
X174592511Y-81797999D01*
X173790510Y-82600000D01*
X173609490Y-82600000D01*
X173609490Y-82600000D01*
X172807489Y-81797999D01*
X172551668Y-81844797D01*
X172350075Y-82341731D01*
X168060920Y-82341731D01*
X167962884Y-81848874D01*
X167868414Y-81707489D01*
X172897999Y-81707489D01*
X173700000Y-82509490D01*
X174502001Y-81707489D01*
X174455203Y-81451668D01*
X173958269Y-81250075D01*
X173422016Y-81253996D01*
X172944797Y-81451668D01*
X172897999Y-81707489D01*
X167868414Y-81707489D01*
X167576094Y-81270000D01*
X167962884Y-80691126D01*
X168100358Y-80000000D01*
X167962884Y-79308874D01*
X167576094Y-78730000D01*
X167962884Y-78151126D01*
X168100358Y-77460000D01*
X167998912Y-76950000D01*
X172244523Y-76950000D01*
X172244523Y-78250000D01*
X172302968Y-78551224D01*
X172476879Y-78815973D01*
X172739424Y-78993193D01*
X173050000Y-79055477D01*
X174350000Y-79055477D01*
X174651224Y-78997032D01*
X174768492Y-78920000D01*
X177899642Y-78920000D01*
X178037116Y-79611126D01*
X178428607Y-80197035D01*
X178529032Y-80264137D01*
X178488764Y-80293274D01*
X178137979Y-80863209D01*
X178064294Y-81128846D01*
X178207831Y-81396000D01*
X179936000Y-81396000D01*
X179936000Y-81376000D01*
X180064000Y-81376000D01*
X180064000Y-81396000D01*
X181792169Y-81396000D01*
X181935706Y-81128846D01*
X181888173Y-80957489D01*
X188217999Y-80957489D01*
X189020000Y-81759490D01*
X189822001Y-80957489D01*
X189775203Y-80701668D01*
X189278269Y-80500075D01*
X188742016Y-80503996D01*
X188264797Y-80701668D01*
X188217999Y-80957489D01*
X181888173Y-80957489D01*
X181862021Y-80863209D01*
X181511236Y-80293274D01*
X181470968Y-80264137D01*
X181571393Y-80197035D01*
X181726433Y-79965000D01*
X203438156Y-79965000D01*
X203555425Y-80554551D01*
X203889379Y-81054347D01*
X204159745Y-81235000D01*
X203889379Y-81415653D01*
X203555425Y-81915449D01*
X203438156Y-82505000D01*
X203555425Y-83094551D01*
X203889379Y-83594347D01*
X204159745Y-83775000D01*
X203889379Y-83955653D01*
X203555425Y-84455449D01*
X203438156Y-85045000D01*
X203555425Y-85634551D01*
X203889379Y-86134347D01*
X204159745Y-86315000D01*
X203889379Y-86495653D01*
X203555425Y-86995449D01*
X203438156Y-87585000D01*
X203555425Y-88174551D01*
X203889379Y-88674347D01*
X204159745Y-88855000D01*
X203889379Y-89035653D01*
X203555425Y-89535449D01*
X203438156Y-90125000D01*
X203555425Y-90714551D01*
X203889379Y-91214347D01*
X204159745Y-91395000D01*
X203889379Y-91575653D01*
X203555425Y-92075449D01*
X203438156Y-92665000D01*
X203555425Y-93254551D01*
X203889379Y-93754347D01*
X204159745Y-93935000D01*
X203889379Y-94115653D01*
X203555425Y-94615449D01*
X203438156Y-95205000D01*
X203555425Y-95794551D01*
X203889379Y-96294347D01*
X204389175Y-96628301D01*
X204978726Y-96745570D01*
X205751274Y-96745570D01*
X206340825Y-96628301D01*
X206840621Y-96294347D01*
X207174575Y-95794551D01*
X207291844Y-95205000D01*
X207174575Y-94615449D01*
X206840621Y-94115653D01*
X206570255Y-93935000D01*
X206840621Y-93754347D01*
X207174575Y-93254551D01*
X207291844Y-92665000D01*
X207174575Y-92075449D01*
X206840621Y-91575653D01*
X206570255Y-91395000D01*
X206840621Y-91214347D01*
X207174575Y-90714551D01*
X207291844Y-90125000D01*
X207174575Y-89535449D01*
X206840621Y-89035653D01*
X206570255Y-88855000D01*
X206840621Y-88674347D01*
X207174575Y-88174551D01*
X207291844Y-87585000D01*
X207174575Y-86995449D01*
X206840621Y-86495653D01*
X206570255Y-86315000D01*
X206840621Y-86134347D01*
X207174575Y-85634551D01*
X207291844Y-85045000D01*
X207174575Y-84455449D01*
X206840621Y-83955653D01*
X206570255Y-83775000D01*
X206840621Y-83594347D01*
X207174575Y-83094551D01*
X207291844Y-82505000D01*
X207174575Y-81915449D01*
X206840621Y-81415653D01*
X206570255Y-81235000D01*
X206840621Y-81054347D01*
X207174575Y-80554551D01*
X207291844Y-79965000D01*
X207174575Y-79375449D01*
X206840621Y-78875653D01*
X206474539Y-78631044D01*
X206783798Y-78404038D01*
X207077045Y-77920215D01*
X207133577Y-77714597D01*
X206986712Y-77489000D01*
X205429000Y-77489000D01*
X205429000Y-77509000D01*
X205301000Y-77509000D01*
X205301000Y-77489000D01*
X203743288Y-77489000D01*
X203596423Y-77714597D01*
X203652955Y-77920215D01*
X203946202Y-78404038D01*
X204255461Y-78631044D01*
X203889379Y-78875653D01*
X203555425Y-79375449D01*
X203438156Y-79965000D01*
X181726433Y-79965000D01*
X181962884Y-79611126D01*
X182100358Y-78920000D01*
X181962884Y-78228874D01*
X181571393Y-77642965D01*
X180985484Y-77251474D01*
X180294358Y-77114000D01*
X179705642Y-77114000D01*
X179014516Y-77251474D01*
X178428607Y-77642965D01*
X178037116Y-78228874D01*
X177899642Y-78920000D01*
X174768492Y-78920000D01*
X174915973Y-78823121D01*
X175093193Y-78560576D01*
X175155477Y-78250000D01*
X175155477Y-76950000D01*
X175097032Y-76648776D01*
X174923121Y-76384027D01*
X174660576Y-76206807D01*
X174350000Y-76144523D01*
X173050000Y-76144523D01*
X172748776Y-76202968D01*
X172484027Y-76376879D01*
X172306807Y-76639424D01*
X172244523Y-76950000D01*
X167998912Y-76950000D01*
X167962884Y-76768874D01*
X167571393Y-76182965D01*
X166985484Y-75791474D01*
X166294358Y-75654000D01*
X165705642Y-75654000D01*
X165014516Y-75791474D01*
X164428607Y-76182965D01*
X164037116Y-76768874D01*
X163899642Y-77460000D01*
X99190000Y-77460000D01*
X99190000Y-66936911D01*
X104570448Y-66936911D01*
X104672107Y-67239459D01*
X105331751Y-67516061D01*
X106047033Y-67519174D01*
X106709059Y-67248322D01*
X106722325Y-67239459D01*
X106823984Y-66936911D01*
X105697216Y-65810144D01*
X104570448Y-66936911D01*
X99190000Y-66936911D01*
X99190000Y-66069451D01*
X103897676Y-66069451D01*
X104168528Y-66731477D01*
X104177391Y-66744743D01*
X104479939Y-66846402D01*
X105606706Y-65719634D01*
X105787726Y-65719634D01*
X106914493Y-66846402D01*
X107217041Y-66744743D01*
X107489940Y-66093929D01*
X108806889Y-66093929D01*
X109094018Y-66788834D01*
X109625219Y-67320964D01*
X110319622Y-67609305D01*
X111071511Y-67609961D01*
X111766416Y-67322832D01*
X112298546Y-66791631D01*
X112586887Y-66097228D01*
X112587543Y-65345339D01*
X112300414Y-64650434D01*
X111769213Y-64118304D01*
X111074810Y-63829963D01*
X110322921Y-63829307D01*
X109628016Y-64116436D01*
X109095886Y-64647637D01*
X108807545Y-65342040D01*
X108806889Y-66093929D01*
X107489940Y-66093929D01*
X107493643Y-66085099D01*
X107496756Y-65369817D01*
X107225904Y-64707791D01*
X107217041Y-64694525D01*
X106914493Y-64592866D01*
X105787726Y-65719634D01*
X105606706Y-65719634D01*
X105606706Y-65719634D01*
X104479939Y-64592866D01*
X104177391Y-64694525D01*
X103900789Y-65354169D01*
X103897676Y-66069451D01*
X99190000Y-66069451D01*
X99190000Y-64502357D01*
X104570448Y-64502357D01*
X105697216Y-65629124D01*
X106823984Y-64502357D01*
X106722325Y-64199809D01*
X106062681Y-63923207D01*
X105347399Y-63920094D01*
X104685373Y-64190946D01*
X104672107Y-64199809D01*
X104570448Y-64502357D01*
X99190000Y-64502357D01*
X99190000Y-62093929D01*
X103806889Y-62093929D01*
X104094018Y-62788834D01*
X104625219Y-63320964D01*
X105319622Y-63609305D01*
X106071511Y-63609961D01*
X106766416Y-63322832D01*
X107153012Y-62936911D01*
X109570448Y-62936911D01*
X109672107Y-63239459D01*
X110331751Y-63516061D01*
X111047033Y-63519174D01*
X111709059Y-63248322D01*
X111722325Y-63239459D01*
X111823984Y-62936911D01*
X110697216Y-61810144D01*
X109570448Y-62936911D01*
X107153012Y-62936911D01*
X107298546Y-62791631D01*
X107586887Y-62097228D01*
X107586911Y-62069451D01*
X108897676Y-62069451D01*
X109168528Y-62731477D01*
X109177391Y-62744743D01*
X109479939Y-62846402D01*
X110606706Y-61719634D01*
X110787726Y-61719634D01*
X111914493Y-62846402D01*
X112217041Y-62744743D01*
X112493643Y-62085099D01*
X112496756Y-61369817D01*
X112225904Y-60707791D01*
X112217041Y-60694525D01*
X111914493Y-60592866D01*
X110787726Y-61719634D01*
X110606706Y-61719634D01*
X110606706Y-61719634D01*
X109479939Y-60592866D01*
X109177391Y-60694525D01*
X108900789Y-61354169D01*
X108897676Y-62069451D01*
X107586911Y-62069451D01*
X107587543Y-61345339D01*
X107300414Y-60650434D01*
X107152596Y-60502357D01*
X109570448Y-60502357D01*
X110697216Y-61629124D01*
X111823984Y-60502357D01*
X111722325Y-60199809D01*
X111566616Y-60134517D01*
X130406941Y-60134517D01*
X130648494Y-60719120D01*
X131076209Y-61147582D01*
X131091814Y-61226034D01*
X131304251Y-61543969D01*
X132717216Y-62956934D01*
X132717216Y-70699629D01*
X132717215Y-70699634D01*
X132791814Y-71074664D01*
X133004251Y-71392599D01*
X135407760Y-73796107D01*
X135407307Y-74314883D01*
X135648860Y-74899486D01*
X136095743Y-75347150D01*
X136679924Y-75589723D01*
X137312465Y-75590275D01*
X137897068Y-75348722D01*
X138344732Y-74901839D01*
X138587305Y-74317658D01*
X138587857Y-73685117D01*
X138346304Y-73100514D01*
X137899421Y-72652850D01*
X137315240Y-72410277D01*
X136793333Y-72409822D01*
X136577537Y-72194026D01*
X153960320Y-72194026D01*
X153960320Y-73804494D01*
X154115581Y-74585046D01*
X154557728Y-75246766D01*
X155219448Y-75688913D01*
X156000000Y-75844174D01*
X156780552Y-75688913D01*
X157442272Y-75246766D01*
X157884419Y-74585046D01*
X158039680Y-73804494D01*
X158039680Y-72194026D01*
X157884419Y-71413474D01*
X157442272Y-70751754D01*
X156780552Y-70309607D01*
X156000000Y-70154346D01*
X155219448Y-70309607D01*
X154557728Y-70751754D01*
X154115581Y-71413474D01*
X153960320Y-72194026D01*
X136577537Y-72194026D01*
X134677216Y-70293704D01*
X134677216Y-68014390D01*
X190630200Y-68014390D01*
X190902060Y-68672340D01*
X191405012Y-69176171D01*
X192062487Y-69449179D01*
X192774390Y-69449800D01*
X193432340Y-69177940D01*
X193936171Y-68674988D01*
X194209179Y-68017513D01*
X194209800Y-67305610D01*
X193937940Y-66647660D01*
X193434988Y-66143829D01*
X192777513Y-65870821D01*
X192065610Y-65870200D01*
X191407660Y-66142060D01*
X190903829Y-66645012D01*
X190630821Y-67302487D01*
X190630200Y-68014390D01*
X134677216Y-68014390D01*
X134677216Y-65558868D01*
X177177511Y-65558868D01*
X177606230Y-66596446D01*
X178399378Y-67390980D01*
X179436207Y-67821509D01*
X180558868Y-67822489D01*
X181596446Y-67393770D01*
X182390980Y-66600622D01*
X182821509Y-65563793D01*
X182821910Y-65104390D01*
X183910200Y-65104390D01*
X184182060Y-65762340D01*
X184685012Y-66266171D01*
X185342487Y-66539179D01*
X186054390Y-66539800D01*
X186712340Y-66267940D01*
X187216171Y-65764988D01*
X187489179Y-65107513D01*
X187489800Y-64395610D01*
X187217940Y-63737660D01*
X186714988Y-63233829D01*
X186057513Y-62960821D01*
X185345610Y-62960200D01*
X184687660Y-63232060D01*
X184183829Y-63735012D01*
X183910821Y-64392487D01*
X183910200Y-65104390D01*
X182821910Y-65104390D01*
X182822489Y-64441132D01*
X182393770Y-63403554D01*
X181600622Y-62609020D01*
X180579468Y-62185000D01*
X195818156Y-62185000D01*
X195935425Y-62774551D01*
X196269379Y-63274347D01*
X196539745Y-63455000D01*
X196269379Y-63635653D01*
X195935425Y-64135449D01*
X195818156Y-64725000D01*
X195935425Y-65314551D01*
X196269379Y-65814347D01*
X196539745Y-65995000D01*
X196269379Y-66175653D01*
X195935425Y-66675449D01*
X195818156Y-67265000D01*
X195935425Y-67854551D01*
X196269379Y-68354347D01*
X196539745Y-68535000D01*
X196269379Y-68715653D01*
X195935425Y-69215449D01*
X195818156Y-69805000D01*
X195935425Y-70394551D01*
X196269379Y-70894347D01*
X196539745Y-71075000D01*
X196269379Y-71255653D01*
X195935425Y-71755449D01*
X195818156Y-72345000D01*
X195935425Y-72934551D01*
X196269379Y-73434347D01*
X196539745Y-73615000D01*
X196269379Y-73795653D01*
X195935425Y-74295449D01*
X195818156Y-74885000D01*
X195935425Y-75474551D01*
X196269379Y-75974347D01*
X196539745Y-76155000D01*
X196269379Y-76335653D01*
X195935425Y-76835449D01*
X195818156Y-77425000D01*
X195935425Y-78014551D01*
X196269379Y-78514347D01*
X196635461Y-78758956D01*
X196326202Y-78985962D01*
X196032955Y-79469785D01*
X195976423Y-79675403D01*
X196123288Y-79901000D01*
X197681000Y-79901000D01*
X197681000Y-79881000D01*
X197809000Y-79881000D01*
X197809000Y-79901000D01*
X199366712Y-79901000D01*
X199513577Y-79675403D01*
X199457045Y-79469785D01*
X199163798Y-78985962D01*
X198854539Y-78758956D01*
X199220621Y-78514347D01*
X199554575Y-78014551D01*
X199671844Y-77425000D01*
X199554575Y-76835449D01*
X199220621Y-76335653D01*
X198950255Y-76155000D01*
X199220621Y-75974347D01*
X199554575Y-75474551D01*
X199671844Y-74885000D01*
X199554575Y-74295449D01*
X199220621Y-73795653D01*
X198950255Y-73615000D01*
X199220621Y-73434347D01*
X199554575Y-72934551D01*
X199671844Y-72345000D01*
X199554575Y-71755449D01*
X199220621Y-71255653D01*
X198950255Y-71075000D01*
X199220621Y-70894347D01*
X199554575Y-70394551D01*
X199671844Y-69805000D01*
X199554575Y-69215449D01*
X199220621Y-68715653D01*
X198950255Y-68535000D01*
X199220621Y-68354347D01*
X199554575Y-67854551D01*
X199671844Y-67265000D01*
X199554575Y-66675449D01*
X199220621Y-66175653D01*
X198950255Y-65995000D01*
X199220621Y-65814347D01*
X199554575Y-65314551D01*
X199671844Y-64725000D01*
X199554575Y-64135449D01*
X199220621Y-63635653D01*
X198950255Y-63455000D01*
X199220621Y-63274347D01*
X199554575Y-62774551D01*
X199671844Y-62185000D01*
X203438156Y-62185000D01*
X203555425Y-62774551D01*
X203889379Y-63274347D01*
X204159745Y-63455000D01*
X203889379Y-63635653D01*
X203555425Y-64135449D01*
X203438156Y-64725000D01*
X203555425Y-65314551D01*
X203889379Y-65814347D01*
X204159745Y-65995000D01*
X203889379Y-66175653D01*
X203555425Y-66675449D01*
X203438156Y-67265000D01*
X203555425Y-67854551D01*
X203889379Y-68354347D01*
X204159745Y-68535000D01*
X203889379Y-68715653D01*
X203555425Y-69215449D01*
X203438156Y-69805000D01*
X203555425Y-70394551D01*
X203889379Y-70894347D01*
X204159745Y-71075000D01*
X203889379Y-71255653D01*
X203555425Y-71755449D01*
X203438156Y-72345000D01*
X203555425Y-72934551D01*
X203889379Y-73434347D01*
X204159745Y-73615000D01*
X203889379Y-73795653D01*
X203555425Y-74295449D01*
X203438156Y-74885000D01*
X203555425Y-75474551D01*
X203889379Y-75974347D01*
X204255461Y-76218956D01*
X203946202Y-76445962D01*
X203652955Y-76929785D01*
X203596423Y-77135403D01*
X203743288Y-77361000D01*
X205301000Y-77361000D01*
X205301000Y-77341000D01*
X205429000Y-77341000D01*
X205429000Y-77361000D01*
X206986712Y-77361000D01*
X207133577Y-77135403D01*
X207077045Y-76929785D01*
X206783798Y-76445962D01*
X206474539Y-76218956D01*
X206840621Y-75974347D01*
X207174575Y-75474551D01*
X207291844Y-74885000D01*
X207174575Y-74295449D01*
X206840621Y-73795653D01*
X206570255Y-73615000D01*
X206840621Y-73434347D01*
X207174575Y-72934551D01*
X207291844Y-72345000D01*
X207174575Y-71755449D01*
X206840621Y-71255653D01*
X206570255Y-71075000D01*
X206840621Y-70894347D01*
X207174575Y-70394551D01*
X207291844Y-69805000D01*
X207174575Y-69215449D01*
X206840621Y-68715653D01*
X206570255Y-68535000D01*
X206840621Y-68354347D01*
X207174575Y-67854551D01*
X207291844Y-67265000D01*
X207174575Y-66675449D01*
X206840621Y-66175653D01*
X206570255Y-65995000D01*
X206840621Y-65814347D01*
X207174575Y-65314551D01*
X207291844Y-64725000D01*
X207174575Y-64135449D01*
X206840621Y-63635653D01*
X206570255Y-63455000D01*
X206840621Y-63274347D01*
X207174575Y-62774551D01*
X207291844Y-62185000D01*
X207174575Y-61595449D01*
X206840621Y-61095653D01*
X206340825Y-60761699D01*
X205751274Y-60644430D01*
X204978726Y-60644430D01*
X204389175Y-60761699D01*
X203889379Y-61095653D01*
X203555425Y-61595449D01*
X203438156Y-62185000D01*
X199671844Y-62185000D01*
X199671844Y-62185000D01*
X199554575Y-61595449D01*
X199220621Y-61095653D01*
X198720825Y-60761699D01*
X198131274Y-60644430D01*
X197358726Y-60644430D01*
X196769175Y-60761699D01*
X196269379Y-61095653D01*
X195935425Y-61595449D01*
X195818156Y-62185000D01*
X180579468Y-62185000D01*
X180563793Y-62178491D01*
X179441132Y-62177511D01*
X178403554Y-62606230D01*
X177609020Y-63399378D01*
X177178491Y-64436207D01*
X177177511Y-65558868D01*
X134677216Y-65558868D01*
X134677216Y-62551004D01*
X134602618Y-62175974D01*
X134390181Y-61858039D01*
X133298951Y-60766809D01*
X133344366Y-60721473D01*
X133430354Y-60514390D01*
X190630200Y-60514390D01*
X190902060Y-61172340D01*
X191405012Y-61676171D01*
X192062487Y-61949179D01*
X192774390Y-61949800D01*
X193432340Y-61677940D01*
X193936171Y-61174988D01*
X194209179Y-60517513D01*
X194209800Y-59805610D01*
X193937940Y-59147660D01*
X193434988Y-58643829D01*
X192777513Y-58370821D01*
X192065610Y-58370200D01*
X191407660Y-58642060D01*
X190903829Y-59145012D01*
X190630821Y-59802487D01*
X190630200Y-60514390D01*
X133430354Y-60514390D01*
X133586939Y-60137292D01*
X133587491Y-59504751D01*
X133345938Y-58920148D01*
X132899055Y-58472484D01*
X132314874Y-58229911D01*
X131682333Y-58229359D01*
X131097730Y-58470912D01*
X130650066Y-58917795D01*
X130407493Y-59501976D01*
X130406941Y-60134517D01*
X111566616Y-60134517D01*
X111062681Y-59923207D01*
X110347399Y-59920094D01*
X109685373Y-60190946D01*
X109672107Y-60199809D01*
X109570448Y-60502357D01*
X107152596Y-60502357D01*
X106769213Y-60118304D01*
X106074810Y-59829963D01*
X105322921Y-59829307D01*
X104628016Y-60116436D01*
X104095886Y-60647637D01*
X103807545Y-61342040D01*
X103806889Y-62093929D01*
X99190000Y-62093929D01*
X99190000Y-57604390D01*
X183910200Y-57604390D01*
X184182060Y-58262340D01*
X184685012Y-58766171D01*
X185342487Y-59039179D01*
X186054390Y-59039800D01*
X186712340Y-58767940D01*
X187216171Y-58264988D01*
X187489179Y-57607513D01*
X187489800Y-56895610D01*
X187217940Y-56237660D01*
X186714988Y-55733829D01*
X186057513Y-55460821D01*
X185345610Y-55460200D01*
X184687660Y-55732060D01*
X184183829Y-56235012D01*
X183910821Y-56892487D01*
X183910200Y-57604390D01*
X99190000Y-57604390D01*
X99190000Y-53294491D01*
X183644690Y-53294491D01*
X183916627Y-53952629D01*
X184419723Y-54456603D01*
X185077385Y-54729688D01*
X185789491Y-54730310D01*
X186447629Y-54458373D01*
X186951603Y-53955277D01*
X187224688Y-53297615D01*
X187224691Y-53294491D01*
X190629690Y-53294491D01*
X190901627Y-53952629D01*
X191404723Y-54456603D01*
X192062385Y-54729688D01*
X192774491Y-54730310D01*
X193432629Y-54458373D01*
X193936603Y-53955277D01*
X194209688Y-53297615D01*
X194210310Y-52585509D01*
X193938373Y-51927371D01*
X193909087Y-51898034D01*
X194011736Y-51795385D01*
X194118000Y-51538841D01*
X194118000Y-50638500D01*
X193943500Y-50464000D01*
X192484000Y-50464000D01*
X192484000Y-50484000D01*
X192356000Y-50484000D01*
X192356000Y-50464000D01*
X190896500Y-50464000D01*
X190722000Y-50638500D01*
X190722000Y-51538841D01*
X190828264Y-51795385D01*
X190930523Y-51897644D01*
X190903397Y-51924723D01*
X190630312Y-52582385D01*
X190629690Y-53294491D01*
X187224691Y-53294491D01*
X187225310Y-52585509D01*
X186953373Y-51927371D01*
X186924087Y-51898034D01*
X187026736Y-51795385D01*
X187133000Y-51538841D01*
X187133000Y-50638500D01*
X186958500Y-50464000D01*
X185499000Y-50464000D01*
X185499000Y-50484000D01*
X185371000Y-50484000D01*
X185371000Y-50464000D01*
X183911500Y-50464000D01*
X183737000Y-50638500D01*
X183737000Y-51538841D01*
X183843264Y-51795385D01*
X183945523Y-51897644D01*
X183918397Y-51924723D01*
X183645312Y-52582385D01*
X183644690Y-53294491D01*
X99190000Y-53294491D01*
X99190000Y-49261159D01*
X183737000Y-49261159D01*
X183737000Y-50161500D01*
X183911500Y-50336000D01*
X185371000Y-50336000D01*
X185371000Y-48876500D01*
X185499000Y-48876500D01*
X185499000Y-50336000D01*
X186958500Y-50336000D01*
X187133000Y-50161500D01*
X187133000Y-49261159D01*
X190722000Y-49261159D01*
X190722000Y-50161500D01*
X190896500Y-50336000D01*
X192356000Y-50336000D01*
X192356000Y-48876500D01*
X192484000Y-48876500D01*
X192484000Y-50336000D01*
X193943500Y-50336000D01*
X194118000Y-50161500D01*
X194118000Y-49261159D01*
X194011736Y-49004615D01*
X193815385Y-48808264D01*
X193558841Y-48702000D01*
X192658500Y-48702000D01*
X192484000Y-48876500D01*
X192356000Y-48876500D01*
X192356000Y-48876500D01*
X192181500Y-48702000D01*
X191281159Y-48702000D01*
X191024615Y-48808264D01*
X190828264Y-49004615D01*
X190722000Y-49261159D01*
X187133000Y-49261159D01*
X187133000Y-49261159D01*
X187026736Y-49004615D01*
X186830385Y-48808264D01*
X186573841Y-48702000D01*
X185673500Y-48702000D01*
X185499000Y-48876500D01*
X185371000Y-48876500D01*
X185371000Y-48876500D01*
X185196500Y-48702000D01*
X184296159Y-48702000D01*
X184039615Y-48808264D01*
X183843264Y-49004615D01*
X183737000Y-49261159D01*
X99190000Y-49261159D01*
X99190000Y-45716022D01*
X145519430Y-45716022D01*
X145519430Y-46283978D01*
X145636699Y-46873529D01*
X145970653Y-47373325D01*
X146470449Y-47707279D01*
X147060000Y-47824548D01*
X147649551Y-47707279D01*
X148149347Y-47373325D01*
X148393268Y-47008272D01*
X148620962Y-47318468D01*
X149104785Y-47611715D01*
X149310403Y-47668247D01*
X149536000Y-47521382D01*
X149536000Y-46064000D01*
X149516000Y-46064000D01*
X149516000Y-45936000D01*
X149536000Y-45936000D01*
X149536000Y-44478618D01*
X149664000Y-44478618D01*
X149664000Y-45936000D01*
X149684000Y-45936000D01*
X149684000Y-46064000D01*
X149664000Y-46064000D01*
X149664000Y-47521382D01*
X149889597Y-47668247D01*
X150095215Y-47611715D01*
X150579038Y-47318468D01*
X150806732Y-47008272D01*
X151050653Y-47373325D01*
X151550449Y-47707279D01*
X152140000Y-47824548D01*
X152729551Y-47707279D01*
X153229347Y-47373325D01*
X153563301Y-46873529D01*
X153680570Y-46283978D01*
X153680570Y-45716022D01*
X153563301Y-45126471D01*
X153229347Y-44626675D01*
X152729551Y-44292721D01*
X152140000Y-44175452D01*
X151550449Y-44292721D01*
X151050653Y-44626675D01*
X150806732Y-44991728D01*
X150579038Y-44681532D01*
X150095215Y-44388285D01*
X149889597Y-44331753D01*
X149664000Y-44478618D01*
X149536000Y-44478618D01*
X149536000Y-44478618D01*
X149310403Y-44331753D01*
X149104785Y-44388285D01*
X148620962Y-44681532D01*
X148393268Y-44991728D01*
X148149347Y-44626675D01*
X147649551Y-44292721D01*
X147060000Y-44175452D01*
X146470449Y-44292721D01*
X145970653Y-44626675D01*
X145636699Y-45126471D01*
X145519430Y-45716022D01*
X99190000Y-45716022D01*
X99190000Y-43893160D01*
X208810000Y-44184186D01*
X208810000Y-44184186D01*
G37*
X208810000Y-44184186D02*
X208810000Y-102810000D01*
X99190000Y-102810000D01*
X99190000Y-96889530D01*
X129200980Y-96889530D01*
X129416119Y-97288909D01*
X130412612Y-97720801D01*
X131498530Y-97738476D01*
X132508551Y-97339243D01*
X132583881Y-97288909D01*
X132799020Y-96889530D01*
X131000000Y-95090510D01*
X129200980Y-96889530D01*
X99190000Y-96889530D01*
X99190000Y-95498530D01*
X128261524Y-95498530D01*
X128660757Y-96508551D01*
X128711091Y-96583881D01*
X129110470Y-96799020D01*
X130909490Y-95000000D01*
X131090510Y-95000000D01*
X132889530Y-96799020D01*
X133288909Y-96583881D01*
X133720801Y-95587388D01*
X133724521Y-95358868D01*
X140677511Y-95358868D01*
X141106230Y-96396446D01*
X141899378Y-97190980D01*
X142936207Y-97621509D01*
X144058868Y-97622489D01*
X145096446Y-97193770D01*
X145890980Y-96400622D01*
X146321509Y-95363793D01*
X146322489Y-94241132D01*
X146303637Y-94195506D01*
X153960320Y-94195506D01*
X153960320Y-95805974D01*
X154115581Y-96586526D01*
X154557728Y-97248246D01*
X155219448Y-97690393D01*
X156000000Y-97845654D01*
X156780552Y-97690393D01*
X157442272Y-97248246D01*
X157884419Y-96586526D01*
X157966959Y-96171566D01*
X170860785Y-96171566D01*
X171049102Y-96627328D01*
X171397497Y-96976332D01*
X171852931Y-97165445D01*
X172346066Y-97165875D01*
X172801828Y-96977558D01*
X173150832Y-96629163D01*
X173339945Y-96173729D01*
X173340375Y-95680594D01*
X173152058Y-95224832D01*
X172803663Y-94875828D01*
X172348229Y-94686715D01*
X171855094Y-94686285D01*
X171399332Y-94874602D01*
X171050328Y-95222997D01*
X170861215Y-95678431D01*
X170860785Y-96171566D01*
X157966959Y-96171566D01*
X158039680Y-95805974D01*
X158039680Y-94195506D01*
X157884419Y-93414954D01*
X157442272Y-92753234D01*
X156780552Y-92311087D01*
X156000000Y-92155826D01*
X155219448Y-92311087D01*
X154557728Y-92753234D01*
X154115581Y-93414954D01*
X153960320Y-94195506D01*
X146303637Y-94195506D01*
X145893770Y-93203554D01*
X145100622Y-92409020D01*
X144063793Y-91978491D01*
X142941132Y-91977511D01*
X141903554Y-92406230D01*
X141109020Y-93199378D01*
X140678491Y-94236207D01*
X140677511Y-95358868D01*
X133724521Y-95358868D01*
X133738476Y-94501470D01*
X133339243Y-93491449D01*
X133288909Y-93416119D01*
X132889530Y-93200980D01*
X131090510Y-95000000D01*
X130909490Y-95000000D01*
X130909490Y-95000000D01*
X129110470Y-93200980D01*
X128711091Y-93416119D01*
X128279199Y-94412612D01*
X128261524Y-95498530D01*
X99190000Y-95498530D01*
X99190000Y-93110470D01*
X129200980Y-93110470D01*
X131000000Y-94909490D01*
X132799020Y-93110470D01*
X132583881Y-92711091D01*
X131587388Y-92279199D01*
X130501470Y-92261524D01*
X129491449Y-92660757D01*
X129416119Y-92711091D01*
X129200980Y-93110470D01*
X99190000Y-93110470D01*
X99190000Y-90319406D01*
X170860785Y-90319406D01*
X171049102Y-90775168D01*
X171397497Y-91124172D01*
X171852931Y-91313285D01*
X172346066Y-91313715D01*
X172801828Y-91125398D01*
X173150832Y-90777003D01*
X173339945Y-90321569D01*
X173340239Y-89984883D01*
X190149725Y-89984883D01*
X190391278Y-90569486D01*
X190760000Y-90938852D01*
X190760000Y-91416827D01*
X190759999Y-91416832D01*
X190834598Y-91791862D01*
X191047035Y-92109797D01*
X196155781Y-97218542D01*
X196155783Y-97218545D01*
X196473718Y-97430982D01*
X196535940Y-97443359D01*
X196848748Y-97505581D01*
X196848753Y-97505580D01*
X198641247Y-97505580D01*
X198641252Y-97505581D01*
X199016282Y-97430982D01*
X199334217Y-97218545D01*
X201472962Y-95079799D01*
X201472965Y-95079797D01*
X201685402Y-94761862D01*
X201760000Y-94386832D01*
X201760000Y-84338348D01*
X202127150Y-83971839D01*
X202369723Y-83387658D01*
X202370275Y-82755117D01*
X202128722Y-82170514D01*
X201681839Y-81722850D01*
X201097658Y-81480277D01*
X200465117Y-81479725D01*
X199880514Y-81721278D01*
X199576349Y-82024913D01*
X199554575Y-81915449D01*
X199220621Y-81415653D01*
X198854539Y-81171044D01*
X199163798Y-80944038D01*
X199457045Y-80460215D01*
X199513577Y-80254597D01*
X199366712Y-80029000D01*
X197809000Y-80029000D01*
X197809000Y-80049000D01*
X197681000Y-80049000D01*
X197681000Y-80029000D01*
X196123288Y-80029000D01*
X195976423Y-80254597D01*
X196032955Y-80460215D01*
X196326202Y-80944038D01*
X196635461Y-81171044D01*
X196269379Y-81415653D01*
X195935425Y-81915449D01*
X195818156Y-82505000D01*
X195935425Y-83094551D01*
X196269379Y-83594347D01*
X196539745Y-83775000D01*
X196269379Y-83955653D01*
X195935425Y-84455449D01*
X195818156Y-85045000D01*
X195935425Y-85634551D01*
X196269379Y-86134347D01*
X196539745Y-86315000D01*
X196269379Y-86495653D01*
X195935425Y-86995449D01*
X195818156Y-87585000D01*
X195935425Y-88174551D01*
X196269379Y-88674347D01*
X196539745Y-88855000D01*
X196269379Y-89035653D01*
X195935425Y-89535449D01*
X195818156Y-90125000D01*
X195935425Y-90714551D01*
X196269379Y-91214347D01*
X196539745Y-91395000D01*
X196269379Y-91575653D01*
X195935425Y-92075449D01*
X195818156Y-92665000D01*
X195935425Y-93254551D01*
X196269379Y-93754347D01*
X196539745Y-93935000D01*
X196269379Y-94115653D01*
X196091285Y-94382188D01*
X192720000Y-91010902D01*
X192720000Y-90938348D01*
X193087150Y-90571839D01*
X193329723Y-89987658D01*
X193330275Y-89355117D01*
X193088722Y-88770514D01*
X192641839Y-88322850D01*
X192057658Y-88080277D01*
X191425117Y-88079725D01*
X190840514Y-88321278D01*
X190392850Y-88768161D01*
X190150277Y-89352342D01*
X190149725Y-89984883D01*
X173340239Y-89984883D01*
X173340375Y-89828434D01*
X173152058Y-89372672D01*
X172803663Y-89023668D01*
X172348229Y-88834555D01*
X171855094Y-88834125D01*
X171399332Y-89022442D01*
X171050328Y-89370837D01*
X170861215Y-89826271D01*
X170860785Y-90319406D01*
X99190000Y-90319406D01*
X99190000Y-77460000D01*
X163899642Y-77460000D01*
X164037116Y-78151126D01*
X164423906Y-78730000D01*
X164037116Y-79308874D01*
X163899642Y-80000000D01*
X164037116Y-80691126D01*
X164423906Y-81270000D01*
X164037116Y-81848874D01*
X163899642Y-82540000D01*
X164037116Y-83231126D01*
X164428607Y-83817035D01*
X165014516Y-84208526D01*
X165705642Y-84346000D01*
X166294358Y-84346000D01*
X166985484Y-84208526D01*
X167297566Y-84000000D01*
X177899642Y-84000000D01*
X178037116Y-84691126D01*
X178428607Y-85277035D01*
X179014516Y-85668526D01*
X179705642Y-85806000D01*
X180294358Y-85806000D01*
X180985484Y-85668526D01*
X181571393Y-85277035D01*
X181962884Y-84691126D01*
X182100358Y-84000000D01*
X181962884Y-83308874D01*
X181890137Y-83200000D01*
X187564523Y-83200000D01*
X187564523Y-84500000D01*
X187622968Y-84801224D01*
X187796879Y-85065973D01*
X188059424Y-85243193D01*
X188370000Y-85305477D01*
X189670000Y-85305477D01*
X189971224Y-85247032D01*
X190235973Y-85073121D01*
X190413193Y-84810576D01*
X190475477Y-84500000D01*
X190475477Y-83200000D01*
X190417032Y-82898776D01*
X190243121Y-82634027D01*
X190175230Y-82588200D01*
X190369925Y-82108269D01*
X190366004Y-81572016D01*
X190168332Y-81094797D01*
X189912511Y-81047999D01*
X189110510Y-81850000D01*
X189124652Y-81864142D01*
X189034142Y-81954652D01*
X189020000Y-81940510D01*
X189005858Y-81954652D01*
X188915348Y-81864142D01*
X188929490Y-81850000D01*
X188127489Y-81047999D01*
X187871668Y-81094797D01*
X187670075Y-81591731D01*
X187673996Y-82127984D01*
X187864258Y-82587314D01*
X187804027Y-82626879D01*
X187626807Y-82889424D01*
X187564523Y-83200000D01*
X181890137Y-83200000D01*
X181571393Y-82722965D01*
X181470968Y-82655863D01*
X181511236Y-82626726D01*
X181862021Y-82056791D01*
X181935706Y-81791154D01*
X181792169Y-81524000D01*
X180064000Y-81524000D01*
X180064000Y-81544000D01*
X179936000Y-81544000D01*
X179936000Y-81524000D01*
X178207831Y-81524000D01*
X178064294Y-81791154D01*
X178137979Y-82056791D01*
X178488764Y-82626726D01*
X178529032Y-82655863D01*
X178428607Y-82722965D01*
X178037116Y-83308874D01*
X177899642Y-84000000D01*
X167297566Y-84000000D01*
X167571393Y-83817035D01*
X167788233Y-83492511D01*
X172897999Y-83492511D01*
X172944797Y-83748332D01*
X173441731Y-83949925D01*
X173977984Y-83946004D01*
X174455203Y-83748332D01*
X174502001Y-83492511D01*
X173700000Y-82690510D01*
X172897999Y-83492511D01*
X167788233Y-83492511D01*
X167962884Y-83231126D01*
X168100358Y-82540000D01*
X168060920Y-82341731D01*
X172350075Y-82341731D01*
X172353996Y-82877984D01*
X172551668Y-83355203D01*
X172807489Y-83402001D01*
X173609490Y-82600000D01*
X173790510Y-82600000D01*
X174592511Y-83402001D01*
X174848332Y-83355203D01*
X175049925Y-82858269D01*
X175046004Y-82322016D01*
X174848332Y-81844797D01*
X174592511Y-81797999D01*
X173790510Y-82600000D01*
X173609490Y-82600000D01*
X173609490Y-82600000D01*
X172807489Y-81797999D01*
X172551668Y-81844797D01*
X172350075Y-82341731D01*
X168060920Y-82341731D01*
X167962884Y-81848874D01*
X167868414Y-81707489D01*
X172897999Y-81707489D01*
X173700000Y-82509490D01*
X174502001Y-81707489D01*
X174455203Y-81451668D01*
X173958269Y-81250075D01*
X173422016Y-81253996D01*
X172944797Y-81451668D01*
X172897999Y-81707489D01*
X167868414Y-81707489D01*
X167576094Y-81270000D01*
X167962884Y-80691126D01*
X168100358Y-80000000D01*
X167962884Y-79308874D01*
X167576094Y-78730000D01*
X167962884Y-78151126D01*
X168100358Y-77460000D01*
X167998912Y-76950000D01*
X172244523Y-76950000D01*
X172244523Y-78250000D01*
X172302968Y-78551224D01*
X172476879Y-78815973D01*
X172739424Y-78993193D01*
X173050000Y-79055477D01*
X174350000Y-79055477D01*
X174651224Y-78997032D01*
X174768492Y-78920000D01*
X177899642Y-78920000D01*
X178037116Y-79611126D01*
X178428607Y-80197035D01*
X178529032Y-80264137D01*
X178488764Y-80293274D01*
X178137979Y-80863209D01*
X178064294Y-81128846D01*
X178207831Y-81396000D01*
X179936000Y-81396000D01*
X179936000Y-81376000D01*
X180064000Y-81376000D01*
X180064000Y-81396000D01*
X181792169Y-81396000D01*
X181935706Y-81128846D01*
X181888173Y-80957489D01*
X188217999Y-80957489D01*
X189020000Y-81759490D01*
X189822001Y-80957489D01*
X189775203Y-80701668D01*
X189278269Y-80500075D01*
X188742016Y-80503996D01*
X188264797Y-80701668D01*
X188217999Y-80957489D01*
X181888173Y-80957489D01*
X181862021Y-80863209D01*
X181511236Y-80293274D01*
X181470968Y-80264137D01*
X181571393Y-80197035D01*
X181726433Y-79965000D01*
X203438156Y-79965000D01*
X203555425Y-80554551D01*
X203889379Y-81054347D01*
X204159745Y-81235000D01*
X203889379Y-81415653D01*
X203555425Y-81915449D01*
X203438156Y-82505000D01*
X203555425Y-83094551D01*
X203889379Y-83594347D01*
X204159745Y-83775000D01*
X203889379Y-83955653D01*
X203555425Y-84455449D01*
X203438156Y-85045000D01*
X203555425Y-85634551D01*
X203889379Y-86134347D01*
X204159745Y-86315000D01*
X203889379Y-86495653D01*
X203555425Y-86995449D01*
X203438156Y-87585000D01*
X203555425Y-88174551D01*
X203889379Y-88674347D01*
X204159745Y-88855000D01*
X203889379Y-89035653D01*
X203555425Y-89535449D01*
X203438156Y-90125000D01*
X203555425Y-90714551D01*
X203889379Y-91214347D01*
X204159745Y-91395000D01*
X203889379Y-91575653D01*
X203555425Y-92075449D01*
X203438156Y-92665000D01*
X203555425Y-93254551D01*
X203889379Y-93754347D01*
X204159745Y-93935000D01*
X203889379Y-94115653D01*
X203555425Y-94615449D01*
X203438156Y-95205000D01*
X203555425Y-95794551D01*
X203889379Y-96294347D01*
X204389175Y-96628301D01*
X204978726Y-96745570D01*
X205751274Y-96745570D01*
X206340825Y-96628301D01*
X206840621Y-96294347D01*
X207174575Y-95794551D01*
X207291844Y-95205000D01*
X207174575Y-94615449D01*
X206840621Y-94115653D01*
X206570255Y-93935000D01*
X206840621Y-93754347D01*
X207174575Y-93254551D01*
X207291844Y-92665000D01*
X207174575Y-92075449D01*
X206840621Y-91575653D01*
X206570255Y-91395000D01*
X206840621Y-91214347D01*
X207174575Y-90714551D01*
X207291844Y-90125000D01*
X207174575Y-89535449D01*
X206840621Y-89035653D01*
X206570255Y-88855000D01*
X206840621Y-88674347D01*
X207174575Y-88174551D01*
X207291844Y-87585000D01*
X207174575Y-86995449D01*
X206840621Y-86495653D01*
X206570255Y-86315000D01*
X206840621Y-86134347D01*
X207174575Y-85634551D01*
X207291844Y-85045000D01*
X207174575Y-84455449D01*
X206840621Y-83955653D01*
X206570255Y-83775000D01*
X206840621Y-83594347D01*
X207174575Y-83094551D01*
X207291844Y-82505000D01*
X207174575Y-81915449D01*
X206840621Y-81415653D01*
X206570255Y-81235000D01*
X206840621Y-81054347D01*
X207174575Y-80554551D01*
X207291844Y-79965000D01*
X207174575Y-79375449D01*
X206840621Y-78875653D01*
X206474539Y-78631044D01*
X206783798Y-78404038D01*
X207077045Y-77920215D01*
X207133577Y-77714597D01*
X206986712Y-77489000D01*
X205429000Y-77489000D01*
X205429000Y-77509000D01*
X205301000Y-77509000D01*
X205301000Y-77489000D01*
X203743288Y-77489000D01*
X203596423Y-77714597D01*
X203652955Y-77920215D01*
X203946202Y-78404038D01*
X204255461Y-78631044D01*
X203889379Y-78875653D01*
X203555425Y-79375449D01*
X203438156Y-79965000D01*
X181726433Y-79965000D01*
X181962884Y-79611126D01*
X182100358Y-78920000D01*
X181962884Y-78228874D01*
X181571393Y-77642965D01*
X180985484Y-77251474D01*
X180294358Y-77114000D01*
X179705642Y-77114000D01*
X179014516Y-77251474D01*
X178428607Y-77642965D01*
X178037116Y-78228874D01*
X177899642Y-78920000D01*
X174768492Y-78920000D01*
X174915973Y-78823121D01*
X175093193Y-78560576D01*
X175155477Y-78250000D01*
X175155477Y-76950000D01*
X175097032Y-76648776D01*
X174923121Y-76384027D01*
X174660576Y-76206807D01*
X174350000Y-76144523D01*
X173050000Y-76144523D01*
X172748776Y-76202968D01*
X172484027Y-76376879D01*
X172306807Y-76639424D01*
X172244523Y-76950000D01*
X167998912Y-76950000D01*
X167962884Y-76768874D01*
X167571393Y-76182965D01*
X166985484Y-75791474D01*
X166294358Y-75654000D01*
X165705642Y-75654000D01*
X165014516Y-75791474D01*
X164428607Y-76182965D01*
X164037116Y-76768874D01*
X163899642Y-77460000D01*
X99190000Y-77460000D01*
X99190000Y-66936911D01*
X104570448Y-66936911D01*
X104672107Y-67239459D01*
X105331751Y-67516061D01*
X106047033Y-67519174D01*
X106709059Y-67248322D01*
X106722325Y-67239459D01*
X106823984Y-66936911D01*
X105697216Y-65810144D01*
X104570448Y-66936911D01*
X99190000Y-66936911D01*
X99190000Y-66069451D01*
X103897676Y-66069451D01*
X104168528Y-66731477D01*
X104177391Y-66744743D01*
X104479939Y-66846402D01*
X105606706Y-65719634D01*
X105787726Y-65719634D01*
X106914493Y-66846402D01*
X107217041Y-66744743D01*
X107489940Y-66093929D01*
X108806889Y-66093929D01*
X109094018Y-66788834D01*
X109625219Y-67320964D01*
X110319622Y-67609305D01*
X111071511Y-67609961D01*
X111766416Y-67322832D01*
X112298546Y-66791631D01*
X112586887Y-66097228D01*
X112587543Y-65345339D01*
X112300414Y-64650434D01*
X111769213Y-64118304D01*
X111074810Y-63829963D01*
X110322921Y-63829307D01*
X109628016Y-64116436D01*
X109095886Y-64647637D01*
X108807545Y-65342040D01*
X108806889Y-66093929D01*
X107489940Y-66093929D01*
X107493643Y-66085099D01*
X107496756Y-65369817D01*
X107225904Y-64707791D01*
X107217041Y-64694525D01*
X106914493Y-64592866D01*
X105787726Y-65719634D01*
X105606706Y-65719634D01*
X105606706Y-65719634D01*
X104479939Y-64592866D01*
X104177391Y-64694525D01*
X103900789Y-65354169D01*
X103897676Y-66069451D01*
X99190000Y-66069451D01*
X99190000Y-64502357D01*
X104570448Y-64502357D01*
X105697216Y-65629124D01*
X106823984Y-64502357D01*
X106722325Y-64199809D01*
X106062681Y-63923207D01*
X105347399Y-63920094D01*
X104685373Y-64190946D01*
X104672107Y-64199809D01*
X104570448Y-64502357D01*
X99190000Y-64502357D01*
X99190000Y-62093929D01*
X103806889Y-62093929D01*
X104094018Y-62788834D01*
X104625219Y-63320964D01*
X105319622Y-63609305D01*
X106071511Y-63609961D01*
X106766416Y-63322832D01*
X107153012Y-62936911D01*
X109570448Y-62936911D01*
X109672107Y-63239459D01*
X110331751Y-63516061D01*
X111047033Y-63519174D01*
X111709059Y-63248322D01*
X111722325Y-63239459D01*
X111823984Y-62936911D01*
X110697216Y-61810144D01*
X109570448Y-62936911D01*
X107153012Y-62936911D01*
X107298546Y-62791631D01*
X107586887Y-62097228D01*
X107586911Y-62069451D01*
X108897676Y-62069451D01*
X109168528Y-62731477D01*
X109177391Y-62744743D01*
X109479939Y-62846402D01*
X110606706Y-61719634D01*
X110787726Y-61719634D01*
X111914493Y-62846402D01*
X112217041Y-62744743D01*
X112493643Y-62085099D01*
X112496756Y-61369817D01*
X112225904Y-60707791D01*
X112217041Y-60694525D01*
X111914493Y-60592866D01*
X110787726Y-61719634D01*
X110606706Y-61719634D01*
X110606706Y-61719634D01*
X109479939Y-60592866D01*
X109177391Y-60694525D01*
X108900789Y-61354169D01*
X108897676Y-62069451D01*
X107586911Y-62069451D01*
X107587543Y-61345339D01*
X107300414Y-60650434D01*
X107152596Y-60502357D01*
X109570448Y-60502357D01*
X110697216Y-61629124D01*
X111823984Y-60502357D01*
X111722325Y-60199809D01*
X111566616Y-60134517D01*
X130406941Y-60134517D01*
X130648494Y-60719120D01*
X131076209Y-61147582D01*
X131091814Y-61226034D01*
X131304251Y-61543969D01*
X132717216Y-62956934D01*
X132717216Y-70699629D01*
X132717215Y-70699634D01*
X132791814Y-71074664D01*
X133004251Y-71392599D01*
X135407760Y-73796107D01*
X135407307Y-74314883D01*
X135648860Y-74899486D01*
X136095743Y-75347150D01*
X136679924Y-75589723D01*
X137312465Y-75590275D01*
X137897068Y-75348722D01*
X138344732Y-74901839D01*
X138587305Y-74317658D01*
X138587857Y-73685117D01*
X138346304Y-73100514D01*
X137899421Y-72652850D01*
X137315240Y-72410277D01*
X136793333Y-72409822D01*
X136577537Y-72194026D01*
X153960320Y-72194026D01*
X153960320Y-73804494D01*
X154115581Y-74585046D01*
X154557728Y-75246766D01*
X155219448Y-75688913D01*
X156000000Y-75844174D01*
X156780552Y-75688913D01*
X157442272Y-75246766D01*
X157884419Y-74585046D01*
X158039680Y-73804494D01*
X158039680Y-72194026D01*
X157884419Y-71413474D01*
X157442272Y-70751754D01*
X156780552Y-70309607D01*
X156000000Y-70154346D01*
X155219448Y-70309607D01*
X154557728Y-70751754D01*
X154115581Y-71413474D01*
X153960320Y-72194026D01*
X136577537Y-72194026D01*
X134677216Y-70293704D01*
X134677216Y-68014390D01*
X190630200Y-68014390D01*
X190902060Y-68672340D01*
X191405012Y-69176171D01*
X192062487Y-69449179D01*
X192774390Y-69449800D01*
X193432340Y-69177940D01*
X193936171Y-68674988D01*
X194209179Y-68017513D01*
X194209800Y-67305610D01*
X193937940Y-66647660D01*
X193434988Y-66143829D01*
X192777513Y-65870821D01*
X192065610Y-65870200D01*
X191407660Y-66142060D01*
X190903829Y-66645012D01*
X190630821Y-67302487D01*
X190630200Y-68014390D01*
X134677216Y-68014390D01*
X134677216Y-65558868D01*
X177177511Y-65558868D01*
X177606230Y-66596446D01*
X178399378Y-67390980D01*
X179436207Y-67821509D01*
X180558868Y-67822489D01*
X181596446Y-67393770D01*
X182390980Y-66600622D01*
X182821509Y-65563793D01*
X182821910Y-65104390D01*
X183910200Y-65104390D01*
X184182060Y-65762340D01*
X184685012Y-66266171D01*
X185342487Y-66539179D01*
X186054390Y-66539800D01*
X186712340Y-66267940D01*
X187216171Y-65764988D01*
X187489179Y-65107513D01*
X187489800Y-64395610D01*
X187217940Y-63737660D01*
X186714988Y-63233829D01*
X186057513Y-62960821D01*
X185345610Y-62960200D01*
X184687660Y-63232060D01*
X184183829Y-63735012D01*
X183910821Y-64392487D01*
X183910200Y-65104390D01*
X182821910Y-65104390D01*
X182822489Y-64441132D01*
X182393770Y-63403554D01*
X181600622Y-62609020D01*
X180579468Y-62185000D01*
X195818156Y-62185000D01*
X195935425Y-62774551D01*
X196269379Y-63274347D01*
X196539745Y-63455000D01*
X196269379Y-63635653D01*
X195935425Y-64135449D01*
X195818156Y-64725000D01*
X195935425Y-65314551D01*
X196269379Y-65814347D01*
X196539745Y-65995000D01*
X196269379Y-66175653D01*
X195935425Y-66675449D01*
X195818156Y-67265000D01*
X195935425Y-67854551D01*
X196269379Y-68354347D01*
X196539745Y-68535000D01*
X196269379Y-68715653D01*
X195935425Y-69215449D01*
X195818156Y-69805000D01*
X195935425Y-70394551D01*
X196269379Y-70894347D01*
X196539745Y-71075000D01*
X196269379Y-71255653D01*
X195935425Y-71755449D01*
X195818156Y-72345000D01*
X195935425Y-72934551D01*
X196269379Y-73434347D01*
X196539745Y-73615000D01*
X196269379Y-73795653D01*
X195935425Y-74295449D01*
X195818156Y-74885000D01*
X195935425Y-75474551D01*
X196269379Y-75974347D01*
X196539745Y-76155000D01*
X196269379Y-76335653D01*
X195935425Y-76835449D01*
X195818156Y-77425000D01*
X195935425Y-78014551D01*
X196269379Y-78514347D01*
X196635461Y-78758956D01*
X196326202Y-78985962D01*
X196032955Y-79469785D01*
X195976423Y-79675403D01*
X196123288Y-79901000D01*
X197681000Y-79901000D01*
X197681000Y-79881000D01*
X197809000Y-79881000D01*
X197809000Y-79901000D01*
X199366712Y-79901000D01*
X199513577Y-79675403D01*
X199457045Y-79469785D01*
X199163798Y-78985962D01*
X198854539Y-78758956D01*
X199220621Y-78514347D01*
X199554575Y-78014551D01*
X199671844Y-77425000D01*
X199554575Y-76835449D01*
X199220621Y-76335653D01*
X198950255Y-76155000D01*
X199220621Y-75974347D01*
X199554575Y-75474551D01*
X199671844Y-74885000D01*
X199554575Y-74295449D01*
X199220621Y-73795653D01*
X198950255Y-73615000D01*
X199220621Y-73434347D01*
X199554575Y-72934551D01*
X199671844Y-72345000D01*
X199554575Y-71755449D01*
X199220621Y-71255653D01*
X198950255Y-71075000D01*
X199220621Y-70894347D01*
X199554575Y-70394551D01*
X199671844Y-69805000D01*
X199554575Y-69215449D01*
X199220621Y-68715653D01*
X198950255Y-68535000D01*
X199220621Y-68354347D01*
X199554575Y-67854551D01*
X199671844Y-67265000D01*
X199554575Y-66675449D01*
X199220621Y-66175653D01*
X198950255Y-65995000D01*
X199220621Y-65814347D01*
X199554575Y-65314551D01*
X199671844Y-64725000D01*
X199554575Y-64135449D01*
X199220621Y-63635653D01*
X198950255Y-63455000D01*
X199220621Y-63274347D01*
X199554575Y-62774551D01*
X199671844Y-62185000D01*
X203438156Y-62185000D01*
X203555425Y-62774551D01*
X203889379Y-63274347D01*
X204159745Y-63455000D01*
X203889379Y-63635653D01*
X203555425Y-64135449D01*
X203438156Y-64725000D01*
X203555425Y-65314551D01*
X203889379Y-65814347D01*
X204159745Y-65995000D01*
X203889379Y-66175653D01*
X203555425Y-66675449D01*
X203438156Y-67265000D01*
X203555425Y-67854551D01*
X203889379Y-68354347D01*
X204159745Y-68535000D01*
X203889379Y-68715653D01*
X203555425Y-69215449D01*
X203438156Y-69805000D01*
X203555425Y-70394551D01*
X203889379Y-70894347D01*
X204159745Y-71075000D01*
X203889379Y-71255653D01*
X203555425Y-71755449D01*
X203438156Y-72345000D01*
X203555425Y-72934551D01*
X203889379Y-73434347D01*
X204159745Y-73615000D01*
X203889379Y-73795653D01*
X203555425Y-74295449D01*
X203438156Y-74885000D01*
X203555425Y-75474551D01*
X203889379Y-75974347D01*
X204255461Y-76218956D01*
X203946202Y-76445962D01*
X203652955Y-76929785D01*
X203596423Y-77135403D01*
X203743288Y-77361000D01*
X205301000Y-77361000D01*
X205301000Y-77341000D01*
X205429000Y-77341000D01*
X205429000Y-77361000D01*
X206986712Y-77361000D01*
X207133577Y-77135403D01*
X207077045Y-76929785D01*
X206783798Y-76445962D01*
X206474539Y-76218956D01*
X206840621Y-75974347D01*
X207174575Y-75474551D01*
X207291844Y-74885000D01*
X207174575Y-74295449D01*
X206840621Y-73795653D01*
X206570255Y-73615000D01*
X206840621Y-73434347D01*
X207174575Y-72934551D01*
X207291844Y-72345000D01*
X207174575Y-71755449D01*
X206840621Y-71255653D01*
X206570255Y-71075000D01*
X206840621Y-70894347D01*
X207174575Y-70394551D01*
X207291844Y-69805000D01*
X207174575Y-69215449D01*
X206840621Y-68715653D01*
X206570255Y-68535000D01*
X206840621Y-68354347D01*
X207174575Y-67854551D01*
X207291844Y-67265000D01*
X207174575Y-66675449D01*
X206840621Y-66175653D01*
X206570255Y-65995000D01*
X206840621Y-65814347D01*
X207174575Y-65314551D01*
X207291844Y-64725000D01*
X207174575Y-64135449D01*
X206840621Y-63635653D01*
X206570255Y-63455000D01*
X206840621Y-63274347D01*
X207174575Y-62774551D01*
X207291844Y-62185000D01*
X207174575Y-61595449D01*
X206840621Y-61095653D01*
X206340825Y-60761699D01*
X205751274Y-60644430D01*
X204978726Y-60644430D01*
X204389175Y-60761699D01*
X203889379Y-61095653D01*
X203555425Y-61595449D01*
X203438156Y-62185000D01*
X199671844Y-62185000D01*
X199671844Y-62185000D01*
X199554575Y-61595449D01*
X199220621Y-61095653D01*
X198720825Y-60761699D01*
X198131274Y-60644430D01*
X197358726Y-60644430D01*
X196769175Y-60761699D01*
X196269379Y-61095653D01*
X195935425Y-61595449D01*
X195818156Y-62185000D01*
X180579468Y-62185000D01*
X180563793Y-62178491D01*
X179441132Y-62177511D01*
X178403554Y-62606230D01*
X177609020Y-63399378D01*
X177178491Y-64436207D01*
X177177511Y-65558868D01*
X134677216Y-65558868D01*
X134677216Y-62551004D01*
X134602618Y-62175974D01*
X134390181Y-61858039D01*
X133298951Y-60766809D01*
X133344366Y-60721473D01*
X133430354Y-60514390D01*
X190630200Y-60514390D01*
X190902060Y-61172340D01*
X191405012Y-61676171D01*
X192062487Y-61949179D01*
X192774390Y-61949800D01*
X193432340Y-61677940D01*
X193936171Y-61174988D01*
X194209179Y-60517513D01*
X194209800Y-59805610D01*
X193937940Y-59147660D01*
X193434988Y-58643829D01*
X192777513Y-58370821D01*
X192065610Y-58370200D01*
X191407660Y-58642060D01*
X190903829Y-59145012D01*
X190630821Y-59802487D01*
X190630200Y-60514390D01*
X133430354Y-60514390D01*
X133586939Y-60137292D01*
X133587491Y-59504751D01*
X133345938Y-58920148D01*
X132899055Y-58472484D01*
X132314874Y-58229911D01*
X131682333Y-58229359D01*
X131097730Y-58470912D01*
X130650066Y-58917795D01*
X130407493Y-59501976D01*
X130406941Y-60134517D01*
X111566616Y-60134517D01*
X111062681Y-59923207D01*
X110347399Y-59920094D01*
X109685373Y-60190946D01*
X109672107Y-60199809D01*
X109570448Y-60502357D01*
X107152596Y-60502357D01*
X106769213Y-60118304D01*
X106074810Y-59829963D01*
X105322921Y-59829307D01*
X104628016Y-60116436D01*
X104095886Y-60647637D01*
X103807545Y-61342040D01*
X103806889Y-62093929D01*
X99190000Y-62093929D01*
X99190000Y-57604390D01*
X183910200Y-57604390D01*
X184182060Y-58262340D01*
X184685012Y-58766171D01*
X185342487Y-59039179D01*
X186054390Y-59039800D01*
X186712340Y-58767940D01*
X187216171Y-58264988D01*
X187489179Y-57607513D01*
X187489800Y-56895610D01*
X187217940Y-56237660D01*
X186714988Y-55733829D01*
X186057513Y-55460821D01*
X185345610Y-55460200D01*
X184687660Y-55732060D01*
X184183829Y-56235012D01*
X183910821Y-56892487D01*
X183910200Y-57604390D01*
X99190000Y-57604390D01*
X99190000Y-53294491D01*
X183644690Y-53294491D01*
X183916627Y-53952629D01*
X184419723Y-54456603D01*
X185077385Y-54729688D01*
X185789491Y-54730310D01*
X186447629Y-54458373D01*
X186951603Y-53955277D01*
X187224688Y-53297615D01*
X187224691Y-53294491D01*
X190629690Y-53294491D01*
X190901627Y-53952629D01*
X191404723Y-54456603D01*
X192062385Y-54729688D01*
X192774491Y-54730310D01*
X193432629Y-54458373D01*
X193936603Y-53955277D01*
X194209688Y-53297615D01*
X194210310Y-52585509D01*
X193938373Y-51927371D01*
X193909087Y-51898034D01*
X194011736Y-51795385D01*
X194118000Y-51538841D01*
X194118000Y-50638500D01*
X193943500Y-50464000D01*
X192484000Y-50464000D01*
X192484000Y-50484000D01*
X192356000Y-50484000D01*
X192356000Y-50464000D01*
X190896500Y-50464000D01*
X190722000Y-50638500D01*
X190722000Y-51538841D01*
X190828264Y-51795385D01*
X190930523Y-51897644D01*
X190903397Y-51924723D01*
X190630312Y-52582385D01*
X190629690Y-53294491D01*
X187224691Y-53294491D01*
X187225310Y-52585509D01*
X186953373Y-51927371D01*
X186924087Y-51898034D01*
X187026736Y-51795385D01*
X187133000Y-51538841D01*
X187133000Y-50638500D01*
X186958500Y-50464000D01*
X185499000Y-50464000D01*
X185499000Y-50484000D01*
X185371000Y-50484000D01*
X185371000Y-50464000D01*
X183911500Y-50464000D01*
X183737000Y-50638500D01*
X183737000Y-51538841D01*
X183843264Y-51795385D01*
X183945523Y-51897644D01*
X183918397Y-51924723D01*
X183645312Y-52582385D01*
X183644690Y-53294491D01*
X99190000Y-53294491D01*
X99190000Y-49261159D01*
X183737000Y-49261159D01*
X183737000Y-50161500D01*
X183911500Y-50336000D01*
X185371000Y-50336000D01*
X185371000Y-48876500D01*
X185499000Y-48876500D01*
X185499000Y-50336000D01*
X186958500Y-50336000D01*
X187133000Y-50161500D01*
X187133000Y-49261159D01*
X190722000Y-49261159D01*
X190722000Y-50161500D01*
X190896500Y-50336000D01*
X192356000Y-50336000D01*
X192356000Y-48876500D01*
X192484000Y-48876500D01*
X192484000Y-50336000D01*
X193943500Y-50336000D01*
X194118000Y-50161500D01*
X194118000Y-49261159D01*
X194011736Y-49004615D01*
X193815385Y-48808264D01*
X193558841Y-48702000D01*
X192658500Y-48702000D01*
X192484000Y-48876500D01*
X192356000Y-48876500D01*
X192356000Y-48876500D01*
X192181500Y-48702000D01*
X191281159Y-48702000D01*
X191024615Y-48808264D01*
X190828264Y-49004615D01*
X190722000Y-49261159D01*
X187133000Y-49261159D01*
X187133000Y-49261159D01*
X187026736Y-49004615D01*
X186830385Y-48808264D01*
X186573841Y-48702000D01*
X185673500Y-48702000D01*
X185499000Y-48876500D01*
X185371000Y-48876500D01*
X185371000Y-48876500D01*
X185196500Y-48702000D01*
X184296159Y-48702000D01*
X184039615Y-48808264D01*
X183843264Y-49004615D01*
X183737000Y-49261159D01*
X99190000Y-49261159D01*
X99190000Y-45716022D01*
X145519430Y-45716022D01*
X145519430Y-46283978D01*
X145636699Y-46873529D01*
X145970653Y-47373325D01*
X146470449Y-47707279D01*
X147060000Y-47824548D01*
X147649551Y-47707279D01*
X148149347Y-47373325D01*
X148393268Y-47008272D01*
X148620962Y-47318468D01*
X149104785Y-47611715D01*
X149310403Y-47668247D01*
X149536000Y-47521382D01*
X149536000Y-46064000D01*
X149516000Y-46064000D01*
X149516000Y-45936000D01*
X149536000Y-45936000D01*
X149536000Y-44478618D01*
X149664000Y-44478618D01*
X149664000Y-45936000D01*
X149684000Y-45936000D01*
X149684000Y-46064000D01*
X149664000Y-46064000D01*
X149664000Y-47521382D01*
X149889597Y-47668247D01*
X150095215Y-47611715D01*
X150579038Y-47318468D01*
X150806732Y-47008272D01*
X151050653Y-47373325D01*
X151550449Y-47707279D01*
X152140000Y-47824548D01*
X152729551Y-47707279D01*
X153229347Y-47373325D01*
X153563301Y-46873529D01*
X153680570Y-46283978D01*
X153680570Y-45716022D01*
X153563301Y-45126471D01*
X153229347Y-44626675D01*
X152729551Y-44292721D01*
X152140000Y-44175452D01*
X151550449Y-44292721D01*
X151050653Y-44626675D01*
X150806732Y-44991728D01*
X150579038Y-44681532D01*
X150095215Y-44388285D01*
X149889597Y-44331753D01*
X149664000Y-44478618D01*
X149536000Y-44478618D01*
X149536000Y-44478618D01*
X149310403Y-44331753D01*
X149104785Y-44388285D01*
X148620962Y-44681532D01*
X148393268Y-44991728D01*
X148149347Y-44626675D01*
X147649551Y-44292721D01*
X147060000Y-44175452D01*
X146470449Y-44292721D01*
X145970653Y-44626675D01*
X145636699Y-45126471D01*
X145519430Y-45716022D01*
X99190000Y-45716022D01*
X99190000Y-43893160D01*
X208810000Y-44184186D01*
M02*
