G04 #@! TF.FileFunction,Copper,L2,Bot,Signal*
%FSLAX46Y46*%
G04 Gerber Fmt 4.6, Leading zero omitted, Abs format (unit mm)*
G04 Created by KiCad (PCBNEW (2015-07-20 BZR 5967)-product) date 2015/07/23 18:22:03*
%MOMM*%
G01*
G04 APERTURE LIST*
%ADD10C,0.100000*%
%ADD11R,1.300000X1.300000*%
%ADD12C,1.300000*%
%ADD13R,2.000000X2.000000*%
%ADD14C,2.000000*%
%ADD15O,2.499360X4.000500*%
%ADD16C,2.200000*%
%ADD17C,4.064000*%
%ADD18O,1.501140X1.998980*%
%ADD19C,1.998980*%
%ADD20O,2.540000X2.032000*%
%ADD21O,2.199640X1.501140*%
%ADD22C,1.600000*%
%ADD23C,0.380000*%
G04 APERTURE END LIST*
D10*
D11*
X173700000Y-77600000D03*
D12*
X173700000Y-82600000D03*
D11*
X189020000Y-83850000D03*
D12*
X189020000Y-81850000D03*
D13*
X185435000Y-50400000D03*
D14*
X185435000Y-52940000D03*
D13*
X192420000Y-50400000D03*
D14*
X192420000Y-52940000D03*
D15*
X156000000Y-72999260D03*
X156000000Y-95000740D03*
D16*
X110697216Y-61719634D03*
X110697216Y-65719634D03*
X105697216Y-65719634D03*
X105697216Y-61719634D03*
D17*
X131000000Y-95000000D03*
X143500000Y-94800000D03*
D18*
X147060000Y-46000000D03*
X149600000Y-46000000D03*
X152140000Y-46000000D03*
D19*
X192420000Y-67660000D03*
X192420000Y-60160000D03*
X185700000Y-64750000D03*
X185700000Y-57250000D03*
D20*
X180000000Y-81460000D03*
X180000000Y-84000000D03*
X180000000Y-78920000D03*
D21*
X205365000Y-95205000D03*
X205365000Y-92665000D03*
X205365000Y-90125000D03*
X205365000Y-87585000D03*
X205365000Y-85045000D03*
X205365000Y-82505000D03*
X205365000Y-79965000D03*
X205365000Y-77425000D03*
X205365000Y-74885000D03*
X205365000Y-72345000D03*
X205365000Y-69805000D03*
X205365000Y-67265000D03*
X205365000Y-64725000D03*
X205365000Y-62185000D03*
X197745000Y-62185000D03*
X197745000Y-64725000D03*
X197745000Y-67265000D03*
X197745000Y-69805000D03*
X197745000Y-72345000D03*
X197745000Y-74885000D03*
X197745000Y-77425000D03*
X197745000Y-79965000D03*
X197745000Y-82505000D03*
X197745000Y-85045000D03*
X197745000Y-87585000D03*
X197745000Y-90125000D03*
X197745000Y-92665000D03*
X197745000Y-95205000D03*
D20*
X166000000Y-80000000D03*
X166000000Y-77460000D03*
X166000000Y-82540000D03*
D17*
X180000000Y-65000000D03*
D22*
X127000000Y-56500000D03*
X143700000Y-75200000D03*
X201420000Y-78520000D03*
X191740000Y-89670000D03*
X200780000Y-83070000D03*
X136997582Y-74000000D03*
X131997216Y-59819634D03*
D23*
X143700000Y-75200000D02*
X131000000Y-87900000D01*
X131000000Y-87900000D02*
X131000000Y-95000000D01*
X201420000Y-78520000D02*
X199190000Y-78520000D01*
X199190000Y-78520000D02*
X197745000Y-79965000D01*
X127011216Y-56505634D02*
X115911216Y-56505634D01*
X115911216Y-56505634D02*
X110697216Y-61719634D01*
X198094250Y-79965000D02*
X197745000Y-79965000D01*
X191740000Y-91416832D02*
X191740000Y-89670000D01*
X200780000Y-83070000D02*
X200780000Y-94386832D01*
X198641252Y-96525580D02*
X196848748Y-96525580D01*
X200780000Y-94386832D02*
X198641252Y-96525580D01*
X196848748Y-96525580D02*
X191740000Y-91416832D01*
X133697216Y-62551004D02*
X133697216Y-70699634D01*
X133697216Y-70699634D02*
X136997582Y-74000000D01*
X131997216Y-59719634D02*
X131997216Y-60851004D01*
X131997216Y-60851004D02*
X133697216Y-62551004D01*
M02*
